<svg width="206" height="206" viewBox="0 0 206 206" fill="none" xmlns="http://www.w3.org/2000/svg">
<circle cx="103" cy="103" r="100.5" fill="url(#paint0_radial_123_2)" stroke="white" stroke-width="5"/>
<path d="M118.605 124.53V133H90.1851V124.53H100.125V103.32C99.7051 103.88 99.0517 104.463 98.1651 105.07C97.2784 105.63 96.2751 106.167 95.1551 106.68C94.0351 107.193 92.9151 107.613 91.7951 107.94C90.6751 108.267 89.6717 108.43 88.7851 108.43V99.68C89.6251 99.68 90.6284 99.4233 91.7951 98.91C93.0084 98.35 94.1984 97.6967 95.3651 96.95C96.5784 96.2033 97.6051 95.48 98.4451 94.78C99.3317 94.0333 99.8917 93.45 100.125 93.03H109.715V124.53H118.605Z" fill="white"/>
<path d="M76.3524 78V55.28H84.6084C87.083 55.28 89.1524 55.792 90.8164 56.816C92.4804 57.8187 93.7284 59.184 94.5604 60.912C95.3924 62.6187 95.8084 64.5173 95.8084 66.608C95.8084 68.912 95.3497 70.9173 94.4324 72.624C93.515 74.3307 92.2137 75.6533 90.5284 76.592C88.8644 77.5307 86.891 78 84.6084 78H76.3524ZM91.3604 66.608C91.3604 65.136 91.0937 63.8453 90.5604 62.736C90.027 61.6053 89.259 60.7307 88.2564 60.112C87.2537 59.472 86.0377 59.152 84.6084 59.152H80.7684V74.128H84.6084C86.059 74.128 87.2857 73.808 88.2884 73.168C89.291 72.5067 90.0484 71.6107 90.5604 70.48C91.0937 69.328 91.3604 68.0373 91.3604 66.608ZM97.4719 73.04C97.4719 71.952 97.7705 71.0027 98.3679 70.192C98.9865 69.36 99.8399 68.72 100.928 68.272C102.016 67.824 103.264 67.6 104.672 67.6C105.376 67.6 106.091 67.6533 106.816 67.76C107.541 67.8667 108.171 68.0373 108.704 68.272V67.376C108.704 66.3093 108.384 65.488 107.744 64.912C107.125 64.336 106.197 64.048 104.96 64.048C104.043 64.048 103.168 64.208 102.336 64.528C101.504 64.848 100.629 65.3173 99.7119 65.936L98.3359 63.12C99.4452 62.3947 100.576 61.8507 101.728 61.488C102.901 61.1253 104.128 60.944 105.408 60.944C107.797 60.944 109.653 61.5413 110.976 62.736C112.32 63.9307 112.992 65.6373 112.992 67.856V73.2C112.992 73.648 113.067 73.968 113.216 74.16C113.387 74.352 113.653 74.4693 114.016 74.512V78C113.632 78.064 113.28 78.1173 112.96 78.16C112.661 78.2027 112.405 78.224 112.192 78.224C111.339 78.224 110.688 78.032 110.24 77.648C109.813 77.264 109.547 76.7947 109.44 76.24L109.344 75.376C108.619 76.3147 107.712 77.04 106.624 77.552C105.536 78.064 104.427 78.32 103.296 78.32C102.187 78.32 101.184 78.096 100.288 77.648C99.4132 77.1787 98.7199 76.5493 98.2079 75.76C97.7172 74.9493 97.4719 74.0427 97.4719 73.04ZM107.904 73.904C108.139 73.648 108.331 73.392 108.48 73.136C108.629 72.88 108.704 72.6453 108.704 72.432V70.736C108.192 70.5227 107.637 70.3627 107.04 70.256C106.443 70.128 105.877 70.064 105.344 70.064C104.235 70.064 103.317 70.3093 102.592 70.8C101.888 71.2693 101.536 71.8987 101.536 72.688C101.536 73.1147 101.653 73.52 101.888 73.904C102.123 74.288 102.464 74.5973 102.912 74.832C103.36 75.0667 103.893 75.184 104.512 75.184C105.152 75.184 105.781 75.0667 106.4 74.832C107.019 74.576 107.52 74.2667 107.904 73.904ZM116.726 81.264C117.11 81.3493 117.462 81.424 117.782 81.488C118.123 81.552 118.411 81.584 118.646 81.584C119.051 81.584 119.382 81.4773 119.638 81.264C119.915 81.072 120.182 80.7093 120.438 80.176C120.694 79.664 120.961 78.9387 121.238 78L114.614 61.232H119.062L123.574 73.616L127.542 61.232H131.638L124.598 81.328C124.342 82.0747 123.947 82.7467 123.414 83.344C122.902 83.9627 122.251 84.4427 121.462 84.784C120.694 85.1467 119.83 85.328 118.87 85.328C118.529 85.328 118.187 85.296 117.846 85.232C117.505 85.1893 117.131 85.104 116.726 84.976V81.264Z" fill="white"/>
<defs>
<radialGradient id="paint0_radial_123_2" cx="0" cy="0" r="1" gradientUnits="userSpaceOnUse" gradientTransform="translate(103 103) rotate(-97.9817) scale(104.008)">
<stop stop-color="#4132F0"/>
<stop offset="1" stop-color="#4132F0" stop-opacity="0"/>
</radialGradient>
</defs>
</svg>
