<svg width="206" height="206" viewBox="0 0 206 206" fill="none" xmlns="http://www.w3.org/2000/svg">
<circle cx="103" cy="103" r="100.5" fill="url(#paint0_radial_301_2)" stroke="white" stroke-width="5"/>
<path d="M85.9041 133C85.9041 130.9 86.0675 129.01 86.3941 127.33C86.7208 125.65 87.2808 124.087 88.0741 122.64C88.9141 121.193 90.0341 119.84 91.4341 118.58C92.8808 117.273 94.7008 116.013 96.8941 114.8C98.8075 113.773 100.487 112.887 101.934 112.14C103.381 111.347 104.594 110.623 105.574 109.97C106.601 109.317 107.371 108.663 107.884 108.01C108.397 107.31 108.654 106.517 108.654 105.63C108.654 104.697 108.397 103.857 107.884 103.11C107.371 102.317 106.647 101.687 105.714 101.22C104.781 100.753 103.614 100.52 102.214 100.52C101.094 100.52 100.044 100.66 99.0641 100.94C98.1308 101.22 97.2441 101.617 96.4041 102.13C95.6108 102.643 94.8641 103.227 94.1641 103.88C93.4641 104.487 92.8341 105.14 92.2741 105.84L86.3241 98.98C86.9775 98.3267 87.8408 97.6267 88.9141 96.88C90.0341 96.0867 91.3408 95.3633 92.8341 94.71C94.3741 94.01 96.0541 93.45 97.8741 93.03C99.7408 92.5633 101.724 92.33 103.824 92.33C106.997 92.33 109.704 92.8433 111.944 93.87C114.184 94.85 115.887 96.2267 117.054 98C118.267 99.7733 118.874 101.85 118.874 104.23C118.874 105.863 118.571 107.31 117.964 108.57C117.357 109.83 116.587 110.95 115.654 111.93C114.721 112.863 113.694 113.703 112.574 114.45C111.501 115.197 110.451 115.85 109.424 116.41C107.977 117.157 106.671 117.857 105.504 118.51C104.337 119.117 103.311 119.747 102.424 120.4C101.537 121.007 100.744 121.637 100.044 122.29C99.3908 122.943 98.8075 123.69 98.2941 124.53H119.644V133H85.9041Z" fill="white"/>
<path d="M76.3524 78V55.28H84.6084C87.083 55.28 89.1524 55.792 90.8164 56.816C92.4804 57.8187 93.7284 59.184 94.5604 60.912C95.3924 62.6187 95.8084 64.5173 95.8084 66.608C95.8084 68.912 95.3497 70.9173 94.4324 72.624C93.515 74.3307 92.2137 75.6533 90.5284 76.592C88.8644 77.5307 86.891 78 84.6084 78H76.3524ZM91.3604 66.608C91.3604 65.136 91.0937 63.8453 90.5604 62.736C90.027 61.6053 89.259 60.7307 88.2564 60.112C87.2537 59.472 86.0377 59.152 84.6084 59.152H80.7684V74.128H84.6084C86.059 74.128 87.2857 73.808 88.2884 73.168C89.291 72.5067 90.0484 71.6107 90.5604 70.48C91.0937 69.328 91.3604 68.0373 91.3604 66.608ZM97.4719 73.04C97.4719 71.952 97.7705 71.0027 98.3679 70.192C98.9865 69.36 99.8399 68.72 100.928 68.272C102.016 67.824 103.264 67.6 104.672 67.6C105.376 67.6 106.091 67.6533 106.816 67.76C107.541 67.8667 108.171 68.0373 108.704 68.272V67.376C108.704 66.3093 108.384 65.488 107.744 64.912C107.125 64.336 106.197 64.048 104.96 64.048C104.043 64.048 103.168 64.208 102.336 64.528C101.504 64.848 100.629 65.3173 99.7119 65.936L98.3359 63.12C99.4452 62.3947 100.576 61.8507 101.728 61.488C102.901 61.1253 104.128 60.944 105.408 60.944C107.797 60.944 109.653 61.5413 110.976 62.736C112.32 63.9307 112.992 65.6373 112.992 67.856V73.2C112.992 73.648 113.067 73.968 113.216 74.16C113.387 74.352 113.653 74.4693 114.016 74.512V78C113.632 78.064 113.28 78.1173 112.96 78.16C112.661 78.2027 112.405 78.224 112.192 78.224C111.339 78.224 110.688 78.032 110.24 77.648C109.813 77.264 109.547 76.7947 109.44 76.24L109.344 75.376C108.619 76.3147 107.712 77.04 106.624 77.552C105.536 78.064 104.427 78.32 103.296 78.32C102.187 78.32 101.184 78.096 100.288 77.648C99.4132 77.1787 98.7199 76.5493 98.2079 75.76C97.7172 74.9493 97.4719 74.0427 97.4719 73.04ZM107.904 73.904C108.139 73.648 108.331 73.392 108.48 73.136C108.629 72.88 108.704 72.6453 108.704 72.432V70.736C108.192 70.5227 107.637 70.3627 107.04 70.256C106.443 70.128 105.877 70.064 105.344 70.064C104.235 70.064 103.317 70.3093 102.592 70.8C101.888 71.2693 101.536 71.8987 101.536 72.688C101.536 73.1147 101.653 73.52 101.888 73.904C102.123 74.288 102.464 74.5973 102.912 74.832C103.36 75.0667 103.893 75.184 104.512 75.184C105.152 75.184 105.781 75.0667 106.4 74.832C107.019 74.576 107.52 74.2667 107.904 73.904ZM116.726 81.264C117.11 81.3493 117.462 81.424 117.782 81.488C118.123 81.552 118.411 81.584 118.646 81.584C119.051 81.584 119.382 81.4773 119.638 81.264C119.915 81.072 120.182 80.7093 120.438 80.176C120.694 79.664 120.961 78.9387 121.238 78L114.614 61.232H119.062L123.574 73.616L127.542 61.232H131.638L124.598 81.328C124.342 82.0747 123.947 82.7467 123.414 83.344C122.902 83.9627 122.251 84.4427 121.462 84.784C120.694 85.1467 119.83 85.328 118.87 85.328C118.529 85.328 118.187 85.296 117.846 85.232C117.505 85.1893 117.131 85.104 116.726 84.976V81.264Z" fill="white"/>
<defs>
<radialGradient id="paint0_radial_301_2" cx="0" cy="0" r="1" gradientUnits="userSpaceOnUse" gradientTransform="translate(103 103) rotate(-97.9817) scale(104.008)">
<stop stop-color="#F03232"/>
<stop offset="1" stop-color="#F03232" stop-opacity="0"/>
</radialGradient>
</defs>
</svg>
