<svg width="492" height="258" viewBox="0 0 492 258" fill="none" xmlns="http://www.w3.org/2000/svg">
    <path d="M68.9097 2.43243V88.7838H60.4191V48.4054H8.61372V88.7838H0V2.43243H8.61372V40.8649H60.4191V2.43243H68.9097Z" fill="white"/>
    <path d="M83.356 70.5405C83.356 66.5676 84.5045 63.1622 86.8015 60.3243C89.0985 57.4054 92.2568 55.1757 96.2766 53.6351C100.378 52.0135 105.095 51.2027 110.428 51.2027C113.545 51.2027 116.785 51.446 120.149 51.9324C123.512 52.4189 126.507 53.1486 129.132 54.1216V48.7703C129.132 43.4189 127.532 39.1622 124.333 36C121.133 32.8378 116.703 31.2568 111.043 31.2568C107.597 31.2568 104.193 31.9054 100.83 33.2027C97.5481 34.4189 94.1026 36.2432 90.4931 38.6757L87.2937 32.8378C91.4775 30 95.5793 27.8919 99.599 26.5135C103.619 25.0541 107.72 24.3243 111.904 24.3243C119.78 24.3243 126.014 26.5541 130.608 31.0135C135.202 35.473 137.499 41.6351 137.499 49.5V78.8108C137.499 79.9459 137.745 80.7973 138.238 81.3649C138.73 81.8514 139.509 82.1351 140.576 82.2162V88.7838C139.673 88.8649 138.894 88.9459 138.238 89.027C137.581 89.1081 137.089 89.1081 136.761 89.027C134.71 88.9459 133.151 88.2973 132.085 87.0811C131.019 85.8649 130.444 84.5676 130.362 83.1892L130.239 78.5676C127.368 82.2162 123.635 85.0541 119.041 87.0811C114.447 89.027 109.771 90 105.013 90C100.912 90 97.179 89.1486 93.8155 87.4459C90.5341 85.6622 87.95 83.3108 86.0632 80.3919C84.2584 77.3919 83.356 74.1081 83.356 70.5405ZM126.302 75.4054C127.204 74.2703 127.901 73.1757 128.393 72.1216C128.886 71.0676 129.132 70.1351 129.132 69.3243V60.0811C126.343 59.027 123.43 58.2162 120.395 57.6487C117.442 57.0811 114.447 56.7973 111.412 56.7973C105.424 56.7973 100.583 57.973 96.8918 60.3243C93.2002 62.6757 91.3544 65.8784 91.3544 69.9324C91.3544 72.2838 91.9697 74.5135 93.2002 76.6216C94.4308 78.6486 96.2355 80.3513 98.6146 81.7297C100.994 83.027 103.783 83.6757 106.982 83.6757C111.002 83.6757 114.735 82.9054 118.18 81.3649C121.708 79.8243 124.415 77.8378 126.302 75.4054Z" fill="white"/>
    <path d="M183.389 90C178.713 90 174.406 89.1486 170.468 87.4459C166.612 85.6622 163.208 83.2297 160.255 80.1486C157.383 77.0676 155.127 73.5405 153.487 69.5676C151.928 65.5946 151.149 61.3784 151.149 56.9189C151.149 50.9189 152.502 45.4459 155.209 40.5C157.917 35.5541 161.69 31.6216 166.53 28.7027C171.37 25.7838 176.949 24.3243 183.266 24.3243C189.254 24.3243 194.545 25.7027 199.139 28.4595C203.733 31.1351 207.138 34.7838 209.353 39.4054L201.231 41.9595C199.426 38.7162 196.883 36.2027 193.602 34.4189C190.403 32.5541 186.834 31.6216 182.896 31.6216C178.63 31.6216 174.734 32.7162 171.206 34.9054C167.679 37.0946 164.849 40.0946 162.716 43.9054C160.665 47.7162 159.639 52.054 159.639 56.9189C159.639 61.7027 160.706 66.0405 162.839 69.9324C164.972 73.8243 167.802 76.9459 171.329 79.2973C174.857 81.5676 178.754 82.7027 183.019 82.7027C185.809 82.7027 188.475 82.2162 191.018 81.2432C193.643 80.2703 195.899 78.973 197.786 77.3513C199.755 75.6486 201.067 73.8243 201.723 71.8784L209.968 74.3108C208.82 77.3108 206.892 80.027 204.185 82.4595C201.559 84.8108 198.442 86.6757 194.833 88.0541C191.305 89.3514 187.49 90 183.389 90Z" fill="white"/>
    <path d="M268.889 88.7838L245.14 56.3108L231.481 68.9595V88.7838H223.114V0H231.481V60.0811L267.782 25.5405H277.011L250.801 51.4459L277.995 88.7838H268.889Z" fill="white"/>
    <path d="M350.493 85.7432C349.836 85.9865 348.811 86.4324 347.416 87.0811C346.022 87.7297 344.34 88.2973 342.371 88.7838C340.402 89.2703 338.269 89.5135 335.973 89.5135C333.593 89.5135 331.338 89.0676 329.205 88.1757C327.154 87.2838 325.513 85.9459 324.282 84.1622C323.052 82.2973 322.437 80.027 322.437 77.3513V31.9865H313.577V25.4189H322.437V4.01351H330.804V25.4189H345.571V31.9865H330.804V75.0405C330.968 77.3108 331.789 79.0135 333.265 80.1486C334.824 81.2838 336.588 81.8514 338.557 81.8514C340.854 81.8514 342.945 81.4865 344.832 80.7568C346.719 79.9459 347.868 79.3784 348.278 79.0541L350.493 85.7432Z" fill="white"/>
    <path d="M414.845 88.7838H406.477V53.3919C406.477 46.2568 405.206 40.9054 402.662 37.3378C400.119 33.6892 396.469 31.8649 391.711 31.8649C388.593 31.8649 385.476 32.6757 382.359 34.2973C379.323 35.8378 376.616 37.9865 374.237 40.7432C371.94 43.4189 370.299 46.5 369.315 49.9865V88.7838H360.947V0H369.315V39.7703C371.858 35.0676 375.386 31.3378 379.898 28.5811C384.492 25.7432 389.373 24.3243 394.541 24.3243C398.233 24.3243 401.35 24.973 403.893 26.2703C406.518 27.5676 408.61 29.473 410.169 31.9865C411.809 34.4189 412.999 37.2973 413.737 40.6216C414.476 43.8649 414.845 47.5541 414.845 51.6892V88.7838Z" fill="white"/>
    <path d="M460.375 90C455.781 90 451.516 89.1486 447.578 87.4459C443.64 85.6622 440.236 83.2703 437.364 80.2703C434.493 77.1892 432.237 73.6622 430.596 69.6892C429.038 65.7162 428.258 61.4595 428.258 56.9189C428.258 51 429.612 45.5676 432.319 40.6216C435.108 35.6757 438.923 31.7432 443.763 28.8243C448.603 25.8243 454.1 24.3243 460.252 24.3243C466.569 24.3243 472.065 25.8243 476.741 28.8243C481.499 31.8243 485.232 35.7973 487.939 40.7432C490.646 45.6081 492 50.9595 492 56.7973C492 57.4459 492 58.0946 492 58.7432C492 59.3108 491.959 59.7568 491.877 60.0811H436.995C437.405 64.6216 438.677 68.6757 440.81 72.2432C443.025 75.7297 445.855 78.527 449.301 80.6351C452.828 82.6622 456.643 83.6757 460.744 83.6757C464.928 83.6757 468.866 82.6216 472.558 80.5135C476.331 78.4054 478.956 75.6487 480.433 72.2432L487.693 74.1892C486.381 77.1892 484.371 79.9054 481.664 82.3378C478.956 84.7703 475.757 86.6757 472.065 88.0541C468.456 89.3514 464.559 90 460.375 90ZM436.749 54.1216H484.125C483.796 49.5 482.525 45.4459 480.31 41.9595C478.177 38.473 475.347 35.7568 471.819 33.8108C468.374 31.7838 464.559 30.7703 460.375 30.7703C456.192 30.7703 452.377 31.7838 448.931 33.8108C445.486 35.7568 442.656 38.5135 440.441 42.0811C438.308 45.5676 437.077 49.5811 436.749 54.1216Z" fill="white"/>
    <path d="M124.09 256.285V156.382L85.0845 230.773H68.5819L29.576 156.382V256.285H0V104.072H31.7191L76.726 190.683L122.162 104.072H153.666V256.285H124.09Z" fill="white"/>
    <path d="M185.436 256.285V104.072H215.012V256.285H185.436Z" fill="white"/>
    <path d="M337.416 143.947C336.416 142.947 334.558 141.589 331.844 139.874C329.272 138.159 326.057 136.515 322.199 134.943C318.485 133.371 314.413 132.013 309.983 130.87C305.554 129.584 301.053 128.941 296.481 128.941C288.48 128.941 282.408 130.441 278.264 133.443C274.264 136.444 272.263 140.66 272.263 146.091C272.263 150.236 273.549 153.523 276.121 155.953C278.693 158.383 282.551 160.455 287.694 162.17C292.838 163.885 299.267 165.743 306.983 167.744C316.984 170.174 325.629 173.175 332.915 176.748C340.345 180.178 345.989 184.752 349.847 190.469C353.847 196.043 355.847 203.475 355.847 212.765C355.847 220.911 354.347 227.915 351.347 233.775C348.346 239.491 344.203 244.136 338.916 247.71C333.63 251.283 327.629 253.927 320.914 255.642C314.198 257.214 307.054 258 299.482 258C291.909 258 284.337 257.214 276.764 255.642C269.191 254.07 261.905 251.854 254.903 248.996C247.902 245.994 241.473 242.421 235.615 238.277L248.688 212.765C249.974 214.051 252.26 215.766 255.546 217.91C258.833 219.911 262.833 221.983 267.548 224.127C272.263 226.128 277.407 227.843 282.979 229.272C288.551 230.702 294.195 231.416 299.91 231.416C307.912 231.416 313.984 230.059 318.127 227.343C322.271 224.627 324.343 220.769 324.343 215.766C324.343 211.193 322.7 207.62 319.413 205.047C316.127 202.474 311.555 200.259 305.697 198.401C299.839 196.4 292.909 194.256 284.908 191.97C275.335 189.254 267.334 186.253 260.904 182.965C254.475 179.535 249.688 175.248 246.545 170.102C243.402 164.957 241.83 158.526 241.83 150.808C241.83 140.374 244.259 131.656 249.117 124.653C254.118 117.507 260.833 112.147 269.263 108.574C277.693 104.858 287.051 103 297.338 103C304.482 103 311.198 103.786 317.484 105.358C323.914 106.93 329.915 109.003 335.487 111.575C341.059 114.148 346.06 116.935 350.49 119.936L337.416 143.947Z" fill="white"/>
    <path d="M492 130.012H443.35V256.285H413.988V130.012H365.338V104.072H492V130.012Z" fill="white"/>
</svg>
