<svg width="149" height="96" viewBox="0 0 149 96" fill="none" xmlns="http://www.w3.org/2000/svg">
    <circle cx="36.4876" cy="57.2489" r="37.8423" fill="url(#paint0_radial_103_2)"/>
    <circle cx="103.785" cy="35.933" r="35.88" fill="url(#paint1_radial_103_2)"/>
    <path d="M68.0256 45.4324V60.7838H66.4207V53.6054H56.6282V60.7838H55V45.4324H56.6282V52.2649H66.4207V45.4324H68.0256Z" fill="white"/>
    <path d="M70.7563 57.5405C70.7563 56.8342 70.9734 56.2288 71.4076 55.7243C71.8418 55.2054 72.4388 54.809 73.1986 54.5351C73.974 54.2468 74.8656 54.1027 75.8735 54.1027C76.4628 54.1027 77.0753 54.1459 77.7111 54.2324C78.3468 54.3189 78.9128 54.4486 79.409 54.6216V53.6703C79.409 52.7189 79.1067 51.9622 78.5019 51.4C77.8971 50.8378 77.0598 50.5568 75.9898 50.5568C75.3385 50.5568 74.695 50.6721 74.0592 50.9027C73.439 51.1189 72.7877 51.4432 72.1054 51.8757L71.5006 50.8378C72.2915 50.3333 73.0668 49.9586 73.8266 49.7135C74.5865 49.4541 75.3618 49.3243 76.1526 49.3243C77.6413 49.3243 78.8198 49.7207 79.6882 50.5135C80.5565 51.3063 80.9907 52.4018 80.9907 53.8V59.0108C80.9907 59.2126 81.0373 59.364 81.1303 59.4649C81.2233 59.5514 81.3706 59.6018 81.5722 59.6162V60.7838C81.4017 60.7982 81.2543 60.8126 81.1303 60.827C81.0062 60.8414 80.9132 60.8414 80.8512 60.827C80.4635 60.8126 80.1689 60.6973 79.9673 60.4811C79.7657 60.2649 79.6572 60.0342 79.6416 59.7892L79.6184 58.9676C79.0757 59.6162 78.3701 60.1207 77.5017 60.4811C76.6334 60.827 75.7495 61 74.8501 61C74.0747 61 73.3692 60.8486 72.7334 60.5459C72.1131 60.2288 71.6247 59.8108 71.268 59.2919C70.9269 58.7586 70.7563 58.1748 70.7563 57.5405ZM78.8741 58.4054C79.0446 58.2036 79.1764 58.009 79.2695 57.8216C79.3625 57.6342 79.409 57.4685 79.409 57.3243V55.6811C78.8818 55.4937 78.3313 55.3496 77.7576 55.2486C77.1993 55.1477 76.6334 55.0973 76.0596 55.0973C74.9276 55.0973 74.0127 55.3063 73.3149 55.7243C72.6171 56.1423 72.2682 56.7117 72.2682 57.4324C72.2682 57.8505 72.3845 58.2468 72.6171 58.6216C72.8497 58.982 73.1909 59.2847 73.6406 59.5297C74.0903 59.7604 74.6175 59.8757 75.2222 59.8757C75.9821 59.8757 76.6876 59.7387 77.3389 59.4649C78.0057 59.191 78.5174 58.8378 78.8741 58.4054Z" fill="white"/>
    <path d="M89.6649 61C88.781 61 87.9669 60.8486 87.2226 60.5459C86.4938 60.2288 85.8503 59.7964 85.292 59.2486C84.7493 58.7009 84.3229 58.0739 84.0127 57.3676C83.7181 56.6613 83.5708 55.9117 83.5708 55.1189C83.5708 54.0523 83.8266 53.0793 84.3384 52.2C84.8501 51.3207 85.5634 50.6216 86.4783 50.1027C87.3932 49.5838 88.4476 49.3243 89.6417 49.3243C90.7736 49.3243 91.7738 49.5694 92.6422 50.0595C93.5106 50.5351 94.1541 51.1838 94.5728 52.0054L93.0376 52.4595C92.6965 51.8829 92.2158 51.436 91.5955 51.1189C90.9907 50.7874 90.3162 50.6216 89.5719 50.6216C88.7655 50.6216 88.029 50.8162 87.3622 51.2054C86.6954 51.5946 86.1604 52.1279 85.7572 52.8054C85.3696 53.4829 85.1757 54.2541 85.1757 55.1189C85.1757 55.9694 85.3773 56.7405 85.7805 57.4324C86.1837 58.1243 86.7186 58.6793 87.3854 59.0973C88.0522 59.5009 88.7888 59.7027 89.5951 59.7027C90.1224 59.7027 90.6263 59.6162 91.107 59.4432C91.6032 59.2703 92.0297 59.0396 92.3863 58.7514C92.7585 58.4486 93.0066 58.1243 93.1307 57.7784L94.6891 58.2108C94.472 58.7441 94.1076 59.227 93.5959 59.6595C93.0996 60.0775 92.5104 60.409 91.8281 60.6541C91.1613 60.8847 90.4402 61 89.6649 61Z" fill="white"/>
    <path d="M105.827 60.7838L101.337 55.0108L98.7556 57.2595V60.7838H97.1739V45H98.7556V55.6811L105.617 49.5405H107.362L102.407 54.1459L107.548 60.7838H105.827Z" fill="white"/>
    <path d="M121.252 60.2432C121.128 60.2865 120.934 60.3658 120.67 60.4811C120.407 60.5964 120.089 60.6973 119.717 60.7838C119.344 60.8703 118.941 60.9135 118.507 60.9135C118.057 60.9135 117.631 60.8342 117.228 60.6757C116.84 60.5171 116.53 60.2793 116.297 59.9622C116.065 59.6306 115.948 59.227 115.948 58.7514V50.6865H114.274V49.5189H115.948V45.7135H117.53V49.5189H120.321V50.6865H117.53V58.3405C117.561 58.7441 117.716 59.0468 117.995 59.2486C118.29 59.4505 118.623 59.5514 118.995 59.5514C119.43 59.5514 119.825 59.4865 120.182 59.3568C120.538 59.2126 120.755 59.1117 120.833 59.0541L121.252 60.2432Z" fill="white"/>
    <path d="M133.416 60.7838H131.834V54.4919C131.834 53.2234 131.594 52.2721 131.113 51.6378C130.632 50.9892 129.942 50.6649 129.043 50.6649C128.454 50.6649 127.864 50.809 127.275 51.0973C126.701 51.3712 126.19 51.7532 125.74 52.2432C125.306 52.7189 124.996 53.2667 124.81 53.8865V60.7838H123.228V45H124.81V52.0703C125.29 51.2342 125.957 50.5712 126.81 50.0811C127.678 49.5766 128.601 49.3243 129.578 49.3243C130.276 49.3243 130.865 49.4396 131.346 49.6703C131.842 49.9009 132.237 50.2396 132.532 50.6865C132.842 51.1189 133.067 51.6306 133.206 52.2216C133.346 52.7982 133.416 53.4541 133.416 54.1892V60.7838Z" fill="white"/>
    <path d="M142.022 61C141.154 61 140.347 60.8486 139.603 60.5459C138.859 60.2288 138.215 59.8036 137.673 59.2703C137.13 58.7225 136.703 58.0955 136.393 57.3892C136.099 56.6829 135.951 55.9261 135.951 55.1189C135.951 54.0667 136.207 53.1009 136.719 52.2216C137.246 51.3423 137.967 50.6432 138.882 50.1243C139.797 49.591 140.836 49.3243 141.999 49.3243C143.193 49.3243 144.232 49.591 145.116 50.1243C146.015 50.6577 146.721 51.364 147.232 52.2432C147.744 53.1081 148 54.0595 148 55.0973C148 55.2126 148 55.3279 148 55.4432C148 55.5441 147.992 55.6234 147.977 55.6811H137.603C137.68 56.4883 137.921 57.209 138.324 57.8432C138.743 58.4631 139.277 58.9604 139.929 59.3351C140.596 59.6955 141.317 59.8757 142.092 59.8757C142.883 59.8757 143.627 59.6883 144.325 59.3135C145.038 58.9387 145.534 58.4486 145.814 57.8432L147.186 58.1892C146.938 58.7225 146.558 59.2054 146.046 59.6378C145.534 60.0703 144.93 60.409 144.232 60.6541C143.55 60.8847 142.813 61 142.022 61ZM137.556 54.6216H146.511C146.449 53.8 146.209 53.0793 145.79 52.4595C145.387 51.8396 144.852 51.3568 144.185 51.0108C143.534 50.6505 142.813 50.4703 142.022 50.4703C141.231 50.4703 140.51 50.6505 139.859 51.0108C139.208 51.3568 138.673 51.8468 138.254 52.4811C137.851 53.1009 137.618 53.8144 137.556 54.6216Z" fill="white"/>
    <path d="M78.7083 92.6791V73.9876L71.256 87.9059H68.1031L60.6507 73.9876V92.6791H55V64.2006H61.0602L69.659 80.4053L78.3398 64.2006H84.359V92.6791H78.7083Z" fill="white"/>
    <path d="M90.4288 92.6791V64.2006H96.0795V92.6791H90.4288Z" fill="white"/>
    <path d="M119.466 71.6611C119.275 71.474 118.92 71.2199 118.401 70.899C117.91 70.5781 117.295 70.2706 116.558 69.9765C115.849 69.6823 115.071 69.4283 114.224 69.2144C113.378 68.9737 112.518 68.8534 111.645 68.8534C110.116 68.8534 108.956 69.1342 108.164 69.6957C107.4 70.2573 107.018 71.0461 107.018 72.0622C107.018 72.8377 107.263 73.4527 107.755 73.9073C108.246 74.3619 108.983 74.7497 109.966 75.0705C110.949 75.3914 112.177 75.739 113.651 76.1134C115.562 76.568 117.214 77.1296 118.606 77.7981C120.025 78.4398 121.104 79.2955 121.841 80.3651C122.605 81.408 122.987 82.7985 122.987 84.5367C122.987 86.0609 122.7 87.3711 122.127 88.4675C121.554 89.5371 120.762 90.4062 119.752 91.0747C118.742 91.7432 117.596 92.2379 116.313 92.5588C115.03 92.8529 113.665 93 112.218 93C110.771 93 109.324 92.8529 107.878 92.5588C106.431 92.2646 105.039 91.8502 103.701 91.3153C102.363 90.7538 101.135 90.0853 100.016 89.3098L102.514 84.5367C102.759 84.7773 103.196 85.0982 103.824 85.4993C104.452 85.8737 105.216 86.2614 106.117 86.6625C107.018 87.0369 108 87.3578 109.065 87.6252C110.13 87.8926 111.208 88.0263 112.3 88.0263C113.829 88.0263 114.989 87.7722 115.78 87.2642C116.572 86.7561 116.968 86.0341 116.968 85.0982C116.968 84.2425 116.654 83.574 116.026 83.0927C115.398 82.6113 114.525 82.1969 113.406 81.8492C112.286 81.4749 110.962 81.0738 109.434 80.6459C107.605 80.1378 106.076 79.5763 104.848 78.9613C103.619 78.3195 102.705 77.5173 102.104 76.5546C101.504 75.592 101.203 74.3887 101.203 72.9447C101.203 70.9926 101.667 69.3615 102.595 68.0512C103.551 66.7142 104.834 65.7114 106.445 65.0429C108.055 64.3476 109.843 64 111.809 64C113.173 64 114.456 64.1471 115.658 64.4412C116.886 64.7354 118.033 65.1231 119.097 65.6044C120.162 66.0858 121.117 66.6072 121.963 67.1687L119.466 71.6611Z" fill="white"/>
    <path d="M149 69.0539H139.705V92.6791H134.095V69.0539H124.8V64.2006H149V69.0539Z" fill="white"/>
    <defs>
        <radialGradient id="paint0_radial_103_2" cx="0" cy="0" r="1" gradientUnits="userSpaceOnUse" gradientTransform="translate(36.4876 57.2489) rotate(-97.9817) scale(38.2124)">
            <stop stop-color="#4132F0"/>
            <stop offset="1" stop-color="#4132F0" stop-opacity="0"/>
        </radialGradient>
        <radialGradient id="paint1_radial_103_2" cx="0" cy="0" r="1" gradientUnits="userSpaceOnUse" gradientTransform="translate(103.785 35.933) rotate(-97.9817) scale(36.231)">
            <stop stop-color="#F03232"/>
            <stop offset="1" stop-color="#F03232" stop-opacity="0"/>
        </radialGradient>
    </defs>
</svg>
